<?xml version="1.0" standalone="no"?>
<!DOCTYPE svg PUBLIC "-//W3C//DTD SVG 20010904//EN"
 "http://www.w3.org/TR/2001/REC-SVG-20010904/DTD/svg10.dtd">
<svg version="1.0" xmlns="http://www.w3.org/2000/svg"
 width="96.000000pt" height="96.000000pt" viewBox="0 0 96.000000 96.000000"
 preserveAspectRatio="xMidYMid meet">
<metadata>
Created by potrace 1.14, written by Peter Selinger 2001-2017
</metadata>
<g transform="translate(0.000000,96.000000) scale(0.100000,-0.100000)"
fill="#000000" stroke="none">
<path d="M163 878 c-4 -7 -19 -21 -33 -29 -14 -9 -42 -33 -63 -53 -21 -20 -43
-36 -48 -36 -16 0 -10 -26 17 -65 29 -44 34 -58 38 -135 5 -76 22 -143 51
-200 14 -27 25 -61 25 -75 0 -14 7 -42 15 -62 8 -19 15 -47 15 -62 0 -15 7
-37 16 -50 12 -16 15 -34 10 -62 -7 -42 -7 -41 54 -41 43 0 49 3 61 40 6 20
20 47 30 60 12 16 17 36 14 65 l-3 42 116 0 c81 0 116 -3 115 -11 -3 -19 66
-92 90 -96 19 -3 22 -8 20 -50 -1 -35 3 -47 15 -50 32 -8 48 3 62 40 7 20 15
31 18 24 2 -8 -1 -19 -7 -25 -18 -18 -13 -34 13 -39 34 -7 53 7 67 50 12 35
21 170 21 310 -1 49 2 62 12 59 8 -3 23 1 34 9 15 11 20 23 17 51 -4 52 -49
85 -100 73 -5 -1 -68 -4 -140 -6 -71 -1 -146 -8 -165 -13 -49 -15 -140 -13
-170 4 -14 8 -35 14 -47 15 -18 0 -23 7 -28 48 -4 26 -9 56 -13 67 -3 11 -5
28 -3 37 3 24 -46 128 -61 128 -8 0 -18 10 -23 22 -12 27 -31 34 -42 16z"/>
</g>
</svg>
